<mxfile host="app.diagrams.net" agent="Mozilla/5.0 (Windows NT 10.0; Win64; x64) AppleWebKit/537.36 (KHTML, like Gecko) Chrome/131.0.0.0 Safari/537.36" version="25.0.3">
  <diagram name="Página-1" id="LGRP8BfWBM2uZs7Yqd3Y">
    <mxGraphModel dx="1050" dy="522" grid="1" gridSize="10" guides="1" tooltips="1" connect="1" arrows="1" fold="1" page="1" pageScale="1" pageWidth="827" pageHeight="1169" math="0" shadow="0">
      <root>
        <mxCell id="0" />
        <mxCell id="1" parent="0" />
        <mxCell id="5ZGSNatJ9MMfOzqPutfi-1" value="Supervisor" style="shape=umlActor;verticalLabelPosition=bottom;verticalAlign=top;html=1;" parent="1" vertex="1">
          <mxGeometry x="50" y="150" width="30" height="60" as="geometry" />
        </mxCell>
        <mxCell id="5ZGSNatJ9MMfOzqPutfi-3" value="" style="html=1;whiteSpace=wrap;" parent="1" vertex="1">
          <mxGeometry x="140" y="100" width="370" height="170" as="geometry" />
        </mxCell>
        <mxCell id="5ZGSNatJ9MMfOzqPutfi-4" value="Aceptar o &lt;br&gt;Rechazar &lt;br&gt;préstamo" style="ellipse;whiteSpace=wrap;html=1;" parent="1" vertex="1">
          <mxGeometry x="180" y="154" width="110" height="55" as="geometry" />
        </mxCell>
        <mxCell id="5ZGSNatJ9MMfOzqPutfi-5" value="" style="endArrow=open;endFill=1;endSize=12;html=1;rounded=0;exitX=0.5;exitY=0.5;exitDx=0;exitDy=0;exitPerimeter=0;entryX=0;entryY=0.5;entryDx=0;entryDy=0;" parent="1" source="5ZGSNatJ9MMfOzqPutfi-1" target="5ZGSNatJ9MMfOzqPutfi-4" edge="1">
          <mxGeometry width="160" relative="1" as="geometry">
            <mxPoint x="270" y="280" as="sourcePoint" />
            <mxPoint x="430" y="280" as="targetPoint" />
          </mxGeometry>
        </mxCell>
        <mxCell id="5ZGSNatJ9MMfOzqPutfi-6" value="Valida préstamo existente" style="ellipse;whiteSpace=wrap;html=1;" parent="1" vertex="1">
          <mxGeometry x="380" y="155" width="100" height="55" as="geometry" />
        </mxCell>
        <mxCell id="5ZGSNatJ9MMfOzqPutfi-7" value="&amp;lt;&amp;lt;include&amp;gt;&amp;gt;" style="endArrow=open;endSize=12;dashed=1;html=1;rounded=0;startArrow=none;startFill=0;entryX=0;entryY=0.5;entryDx=0;entryDy=0;exitX=1;exitY=0.5;exitDx=0;exitDy=0;" parent="1" source="5ZGSNatJ9MMfOzqPutfi-4" target="5ZGSNatJ9MMfOzqPutfi-6" edge="1">
          <mxGeometry x="-0.1087" y="-12" width="160" relative="1" as="geometry">
            <mxPoint x="270" y="280" as="sourcePoint" />
            <mxPoint x="430" y="280" as="targetPoint" />
            <mxPoint as="offset" />
          </mxGeometry>
        </mxCell>
        <mxCell id="_UyCUyvbNnEZTsGDEi6F-4" style="rounded=0;orthogonalLoop=1;jettySize=auto;html=1;exitX=0.5;exitY=0.5;exitDx=0;exitDy=0;exitPerimeter=0;endArrow=open;endFill=0;endSize=12;" parent="1" source="_UyCUyvbNnEZTsGDEi6F-3" target="5ZGSNatJ9MMfOzqPutfi-6" edge="1">
          <mxGeometry relative="1" as="geometry">
            <mxPoint x="479.99999999999613" y="182.5" as="targetPoint" />
          </mxGeometry>
        </mxCell>
        <mxCell id="_UyCUyvbNnEZTsGDEi6F-3" value="Sistema" style="shape=umlActor;verticalLabelPosition=bottom;verticalAlign=top;html=1;" parent="1" vertex="1">
          <mxGeometry x="550" y="152.5" width="30" height="60" as="geometry" />
        </mxCell>
      </root>
    </mxGraphModel>
  </diagram>
</mxfile>
